<svg width="27" height="27" viewBox="0 0 26 26" fill="none" xmlns="http://www.w3.org/2000/svg">
<circle cx="13" cy="13" r="12" fill="white"/>
<path d="M16.7419 15.3441C17.7102 14.0228 18.1439 12.3846 17.9562 10.7572C17.7685 9.12991 16.9733 7.63344 15.7297 6.56723C14.486 5.50102 12.8857 4.9437 11.2488 5.00678C9.61184 5.06985 8.05911 5.74866 6.90119 6.90741C5.74327 8.06615 5.06557 9.61938 5.00367 11.2563C4.94177 12.8933 5.50023 14.4933 6.56733 15.7361C7.63443 16.979 9.13147 17.7732 10.7589 17.9597C12.3864 18.1462 14.0243 17.7113 15.3449 16.7421H15.3439C15.3739 16.7821 15.4059 16.8201 15.4419 16.8571L19.2919 20.7071C19.4794 20.8947 19.7338 21.0002 19.9991 21.0003C20.2643 21.0004 20.5188 20.8951 20.7064 20.7076C20.8941 20.5201 20.9995 20.2657 20.9996 20.0005C20.9997 19.7352 20.8944 19.4807 20.7069 19.2931L16.8569 15.4431C16.8212 15.4069 16.7827 15.3745 16.7419 15.3441ZM16.9999 11.5001C16.9999 12.2224 16.8577 12.9376 16.5813 13.6049C16.3049 14.2722 15.8997 14.8785 15.389 15.3892C14.8783 15.8999 14.272 16.305 13.6047 16.5814C12.9374 16.8578 12.2222 17.0001 11.4999 17.0001C10.7777 17.0001 10.0625 16.8578 9.39516 16.5814C8.72787 16.305 8.12156 15.8999 7.61083 15.3892C7.10011 14.8785 6.69498 14.2722 6.41858 13.6049C6.14218 12.9376 5.99992 12.2224 5.99992 11.5001C5.99992 10.0414 6.57938 8.64246 7.61083 7.61101C8.64228 6.57956 10.0412 6.0001 11.4999 6.0001C12.9586 6.0001 14.3576 6.57956 15.389 7.61101C16.4205 8.64246 16.9999 10.0414 16.9999 11.5001Z" fill="#7000FF"/>
<path d="M9.1582 10.2539C9.08789 10.084 9.05273 9.8833 9.05273 9.65186C9.05273 9.42041 9.06152 9.23145 9.0791 9.08496C9.09668 8.93555 9.12012 8.80078 9.14941 8.68066C9.21973 8.41113 9.30615 8.27637 9.40869 8.27637H13.2803C13.4502 8.27637 13.5645 8.52832 13.623 9.03223C13.6377 9.17285 13.645 9.31787 13.645 9.46729C13.645 9.81885 13.6069 10.0811 13.5308 10.2539C13.2788 9.47168 12.9521 8.9707 12.5508 8.75098C12.46 8.69824 12.3706 8.67188 12.2827 8.67188C12.1948 8.67188 12.126 8.69531 12.0762 8.74219C12.0264 8.78613 11.9854 8.85791 11.9531 8.95752C11.9004 9.1333 11.874 9.34424 11.874 9.59033V11.2383L11.8784 12.583V13.8574C11.8784 14.1445 11.915 14.3569 11.9883 14.4946C12.0645 14.6294 12.1406 14.7319 12.2168 14.8022C12.2959 14.8726 12.3882 14.9385 12.4937 15H10.248C10.459 14.8271 10.5938 14.6851 10.6523 14.5737C10.7607 14.3716 10.8149 14.1328 10.8149 13.8574V9.89795C10.8149 9.43799 10.7974 9.14209 10.7622 9.01025C10.7271 8.87549 10.6846 8.78613 10.6348 8.74219C10.585 8.69531 10.5161 8.67188 10.4282 8.67188C10.3403 8.67188 10.251 8.69824 10.1602 8.75098C10.0693 8.80078 9.97998 8.86816 9.89209 8.95312C9.80713 9.03516 9.7251 9.13184 9.646 9.24316C9.56982 9.35156 9.49951 9.46436 9.43506 9.58154C9.30908 9.81299 9.2168 10.0371 9.1582 10.2539Z" fill="#7000FF"/>
</svg>
